# xmcd
#
# Track frame offsets:
#	150
#	15079
#	31729
#	45899
#	52795
#	68421
#	79910
#	95719
#	106629
#	114129
#	119414
#	140099
#	155230
#	178561
#	187908
#	189257
#	197680
#
# Disc length: 2668 seconds
#
# Revision: 0
# Processed by: cddbd v1.5.2PL0 Copyright (c) Steve Scherf et al.
# Submitted via: EZCDAudioConverter 2.4.0.1
#
DISCID=c60a6a11
DTITLE=Fosko - Gat In De Markt
DYEAR=2007
DGENRE=Blues
TTITLE0=Storm In Me Kop
TTITLE1=Jij Wil Aan Het Stuur (Draaien)
TTITLE2=Kijk Eens Wat Ik Hebt
TTITLE3=Kunst
TTITLE4=Helemaal Niks Aan Jou
TTITLE5=Aandelen
TTITLE6=Hou Toch Altijd Je Moeder In Ere
TTITLE7=Alles In De Blender
TTITLE8=Klokje
TTITLE9=Viool
TTITLE10=Gezagvoerder
TTITLE11=Je Le Fait Pour Toi
TTITLE12=Kolen Op Het Vuur
TTITLE13=Angst
TTITLE14=Dichter Bij God
TTITLE15=Kakkerlak
TTITLE16=Niet
EXTD=
EXTT0=
EXTT1=
EXTT2=
EXTT3=
EXTT4=
EXTT5=
EXTT6=
EXTT7=
EXTT8=
EXTT9=
EXTT10=
EXTT11=
EXTT12=
EXTT13=
EXTT14=
EXTT15=
EXTT16=
PLAYORDER=
